<?xml version="1.0" encoding="UTF-8" standalone="no"?><!DOCTYPE svg PUBLIC "-//W3C//DTD SVG 1.1//EN" "http://www.w3.org/Graphics/SVG/1.1/DTD/svg11.dtd"><svg width="100%" height="100%" viewBox="0 0 1292 173" version="1.1" xmlns="http://www.w3.org/2000/svg" xmlns:xlink="http://www.w3.org/1999/xlink" xml:space="preserve" xmlns:serif="http://www.serif.com/" style="fill-rule:evenodd;clip-rule:evenodd;stroke-miterlimit:10;"><g id="Layer-1" serif:id="Layer 1"><path d="M667.344,144.284l0,-116l68.924,0l0,9.64l-58.48,0l0,41.613l56.232,0l0,9.638l-56.232,0l0,45.468l60.891,0l0,9.641l-71.335,0Z" style="fill:#fff;fill-rule:nonzero;"/><path d="M96.856,101.633c0,5.172 -1.913,15.228 -11.385,15.366c-11.364,0 -13.31,-9.527 -13.31,-31.246c0,-19.675 1.747,-30.588 13.89,-30.588c10.157,0 11.011,9.426 10.913,15.86l41.861,0.133c0.466,-23.775 -13.557,-45.573 -51.412,-46.033c-41.101,0 -62.44,21.308 -62.287,60.321c0,36.887 19.244,61.825 59.913,61.825c28.993,0 52.623,-14.513 53.583,-45.638l-41.766,0Z" style="fill:none;stroke:#fff;stroke-width:5px;"/><path d="M305.562,77.229l0,-21.875c9.55,0 19.65,-0.315 19.65,10.591c0,10.059 -10.101,11.284 -19.65,11.284Zm-120.72,20.599l10.168,-26.403l9.977,26.403l-20.145,0Zm160.657,-11.903c12.566,-3.269 23.766,-8.825 23.766,-28.197c0,-24.202 -17.036,-29.369 -49.915,-29.369l-57.869,0l-0.6,104.257l-7.957,-21.389l-26.978,-82.569l-58.632,0l-38.474,115.626l44.862,0l5,-18.177l33.329,0l4.54,18.138l88.984,0l0,-40.593c6.26,-0.24 11.807,-0.782 15.584,3.439c1.989,2.224 2.944,11.421 3.506,17.001c0.6,5.975 2.118,17.627 3.44,20.162l44.925,0c-1.267,-3.273 -4.177,-12.829 -4.991,-28.037c-1.528,-28.569 -13.602,-28.76 -22.52,-30.292Z" style="fill:none;stroke:#fff;stroke-width:5px;"/><path id="A---new" serif:id="A - new" d="M542.307,103.314l-25.063,-65.39l-25.545,65.39l50.608,0Zm-76.957,40.97l45.951,-116l12.208,0l46.272,116l-11.406,0l-12.373,-31.33l-57.676,0l-12.21,31.33l-10.766,0Z" style="fill:#fff;fill-rule:nonzero;"/><path id="C---new" serif:id="C - new" d="M452.255,56.666c-1.85,-13.575 -13.575,-19.129 -26.224,-19.129c-28.537,0 -37.175,25.916 -37.175,48.747c0,22.828 8.638,48.744 37.175,48.744c12.341,0 24.681,-6.169 27.459,-20.053l10.797,0c-3.239,18.664 -20.361,29.309 -38.256,29.309c-33.782,0 -47.972,-27.15 -47.972,-58c0,-30.544 14.344,-58 47.972,-58c18.203,0 35.48,8.329 37.021,28.382l-10.797,0Z" style="fill:#fff;fill-rule:nonzero;"/><path id="R---new" serif:id="R - new" d="M612.776,79.376c14.781,0 33.097,-0.964 33.097,-20.725c0,-22.333 -20.887,-20.727 -31.972,-20.727l-23.456,0l0,41.452l22.331,0Zm-22.331,64.908l-10.444,0l0,-116l37.916,0c10.123,0 18.477,0.645 27.313,6.106c8.033,4.82 11.889,13.174 11.889,24.261c0,12.531 -8.837,21.529 -22.332,24.902l0,0.322c14.781,2.409 17.994,12.37 19.441,25.866c2.087,18.796 1.444,27.472 6.104,34.543l-12.05,0c-2.73,-7.712 -3.373,-15.905 -4.016,-24.101c-2.409,-26.507 -4.016,-31.169 -25.063,-31.169l-28.758,0l0,55.27Z" style="fill:#fff;fill-rule:nonzero;"/><path d="M869.312,139.918l-34.158,-57.514l30.753,-54.028l-48.484,0l-23.888,38.783l-0.137,-38.783l-44.378,0l0,115.644l44.378,0l0.019,-36.981l27.67,36.981l93.845,0l0,-115.644l-45.62,0l0,111.542Z" style="fill:none;stroke:#fff;stroke-width:5px;"/><path d="M987.346,98.828c0,6.802 -1.997,18.699 -12.144,18.699c-9.781,0 -11.992,-11.298 -11.992,-18.699l0,-24.63c0,-6.807 2.071,-18.279 11.76,-18.279c10.897,0 12.376,12.183 12.376,18.279l0,24.63Zm31.88,-57.377c-11.158,-11.169 -25.923,-16.594 -43.63,-16.594c-17.812,0 -32.771,5.466 -43.797,16.554c-11.131,11.197 -16.16,26.151 -16.16,44.705c0,18.663 4.991,33.869 15.963,45.01c10.974,11.144 25.971,16.412 43.994,16.412c17.812,0 32.825,-5.062 43.956,-16.259c11.026,-11.088 16.003,-26.5 16.003,-45.163c0,-18.554 -5.222,-33.548 -16.329,-44.665" style="fill:none;stroke:#fff;stroke-width:5px;stroke-linejoin:round;stroke-miterlimit:2;"/><path d="M1132.01,81.633c-6.982,-5.863 -17.581,-9.113 -32.38,-13.061c-9.976,-2.661 -21.965,-4.514 -22.194,-10.997c-0.181,-5.085 3.648,-7.24 10.413,-7.317c6.348,-0.072 10.765,3.57 10.816,9.786l40.068,0c-0.421,-27.928 -21.302,-35.666 -52.502,-35.666c-19.707,0 -33.447,4.149 -41.218,12.446c-6.645,7.082 -9.967,15.822 -9.967,26.223c0,11.044 4.381,18.114 11.624,23.521c6.107,4.556 15.576,7.276 25.268,9.926c4.387,1.201 9.143,2.622 13.09,3.785c3.571,1.05 8.941,2.147 11.641,4.438c1.669,1.414 2.764,3.456 2.764,6.621c0,4.653 -4.852,8.631 -10.866,8.631c-10.707,0 -11.987,-7.915 -11.97,-12.345l-43.326,0c-0.608,29.603 26.676,40.394 54.311,40.394c17.681,0 31.308,-3.762 40.88,-11.285c9.347,-7.524 14.021,-17.703 14.021,-30.538c0,-10.509 -3.492,-18.699 -10.473,-24.562" style="fill:none;stroke:#fff;stroke-width:5px;stroke-linejoin:round;stroke-miterlimit:2;"/><path d="M1229.33,82.405l30.754,-54.029l-48.484,0l-24.635,33.757l0.61,-33.757l-44.378,0l0,115.644l44.378,0l0,-39.661l27.69,39.661l50.66,0l-36.595,-61.615Z" style="fill:none;stroke:#fff;stroke-width:5px;"/><path d="M1272.36,61.039c9.018,0 16.373,-7.355 16.373,-16.373c0,-9.017 -7.355,-16.373 -16.373,-16.373c-9.018,0 -16.373,7.356 -16.373,16.373c0,9.018 7.355,16.373 16.373,16.373" style="fill:none;stroke:#fff;stroke-width:3px;stroke-linejoin:round;stroke-miterlimit:2;"/><path d="M1272.36,61.039c9.018,0 16.373,-7.355 16.373,-16.373c0,-9.017 -7.355,-16.373 -16.373,-16.373c-9.018,0 -16.373,7.356 -16.373,16.373c0,9.018 7.355,16.373 16.373,16.373" style="fill:#fc1400;stroke:#fff;stroke-width:3px;stroke-linejoin:round;stroke-miterlimit:2;"/><path d="M1268.64,43.517l4.074,0c0.868,0 1.542,-0.105 2.03,-0.318c0.488,-0.207 0.858,-0.544 1.108,-1.01c0.255,-0.463 0.381,-0.964 0.381,-1.509c0,-0.795 -0.244,-1.453 -0.735,-1.966c-0.491,-0.514 -1.264,-0.769 -2.323,-0.769l-4.535,0l0,5.572Zm-1.904,9.404l0,-16.833l6.358,0c1.279,0 2.251,0.152 2.915,0.454c0.665,0.302 1.195,0.835 1.593,1.599c0.397,0.764 0.594,1.61 0.594,2.536c0,1.195 -0.33,2.202 -0.987,3.021c-0.659,0.818 -1.674,1.336 -3.049,1.558c0.503,0.283 0.885,0.566 1.144,0.839c0.555,0.596 1.079,1.345 1.57,2.242l2.481,4.584l-2.37,0l-1.896,-3.503c-0.551,-1.014 -1.01,-1.787 -1.367,-2.322c-0.361,-0.538 -0.681,-0.91 -0.965,-1.127c-0.28,-0.21 -0.571,-0.359 -0.865,-0.446c-0.213,-0.051 -0.565,-0.078 -1.055,-0.078l-2.197,0l0,7.476l-1.904,0Z" style="fill:#fff;"/></g></svg>